Coordinates
version=1
nRows=14
nColumns=24
inDegrees=yes

Units are S.I. units (second, meters, Newtons, ...)
Angles are in degrees.

endheader
time	pelvis_tilt	pelvis_list	pelvis_rotation	pelvis_tx	pelvis_ty	pelvis_tz	hip_flexion_r	hip_adduction_r	hip_rotation_r	knee_angle_r	ankle_angle_r	subtalar_angle_r	mtp_angle_r	hip_flexion_l	hip_adduction_l	hip_rotation_l	knee_angle_l	ankle_angle_l	subtalar_angle_l	mtp_angle_l	lumbar_extension	lumbar_bending	lumbar_rotation
      1.75700000	      6.77706039	      5.14550040	     -3.92290926	      1.40324259	      1.02690125	      0.28816326	      7.85812742	     -8.27008171	      0.34377223	    -66.80072400	     -4.25677302	     -2.96228648	      5.82971693	     -3.10598985	     10.71563778	      7.40276189	     -8.22697078	      2.47912958	    -16.72930855	     -6.76793906	    -18.34682110	     -1.24442839	     -1.77794796
      1.76116667	      6.82555090	      4.93629634	     -3.69262475	      1.40765907	      1.02761064	      0.28755056	      8.28744810	     -7.99001453	      0.20971961	    -66.34441742	     -3.36560972	     -2.76709906	      5.71536923	     -3.70451902	     10.49614665	      7.74347689	     -7.74764733	      2.37048971	    -16.84608662	     -6.77449306	    -18.44455431	     -0.91013390	     -2.11333211
      1.76533333	      6.87424745	      4.71925869	     -3.47598612	      1.41208128	      1.02827328	      0.28695409	      8.71109044	     -7.70523730	      0.08470036	    -65.84017147	     -2.53491547	     -2.53312007	      5.64557579	     -4.27894998	     10.26361405	      8.01124812	     -7.31630149	      2.39807324	    -16.84818449	     -6.77509309	    -18.52871328	     -0.57506540	     -2.31218649
      1.76950000	      6.93602349	      4.50915329	     -3.25270624	      1.41642678	      1.02891115	      0.28637575	      9.11126140	     -7.42476266	     -0.04226540	    -65.29123220	     -1.72478434	     -2.38033522	      5.56121141	     -4.86278541	     10.03253941	      8.28631287	     -6.87769890	      2.37395954	    -16.87098162	     -6.77860976	    -18.64563222	     -0.24526063	     -2.58246925
      1.77366667	      6.98134276	      4.31993280	     -3.03163618	      1.42082007	      1.02945382	      0.28580807	      9.52338662	     -7.17212617	     -0.17733576	    -64.71587592	     -0.96095642	     -2.31437870	      5.36770253	     -5.43167145	      9.82153195	      8.59906201	     -6.43162590	      2.27322691	    -17.00317421	     -6.78659013	    -18.74035836	      0.06428369	     -2.88959359
      1.77783333	      7.01257336	      4.12651382	     -2.82691860	      1.42520023	      1.02993759	      0.28527046	      9.94497456	     -6.91739289	     -0.30190591	    -64.09176067	     -0.26305706	     -2.21843524	      5.26039885	     -5.96576756	      9.59957076	      8.83163873	     -6.02001377	      2.29407234	    -16.98298709	     -6.78695360	    -18.79614417	      0.36425729	     -3.07489472
      1.78200000	      7.04223196	      3.92596367	     -2.59892470	      1.42955373	      1.03038648	      0.28472549	     10.34897513	     -6.65562135	     -0.44859405	    -63.41640324	      0.41686659	     -2.18465079	      5.15812634	     -6.48408082	      9.36403340	      9.07010835	     -5.63296399	      2.29494259	    -16.99088352	     -6.78755180	    -18.87160819	      0.66095548	     -3.29730312
      1.78616667	      7.10275384	      3.74915522	     -2.37617482	      1.43389860	      1.03081237	      0.28418420	     10.71483825	     -6.42953664	     -0.60269464	    -62.71136628	      1.03058283	     -2.22721259	      5.02395470	     -7.03847183	      9.15334002	      9.33312731	     -5.23513324	      2.27316991	    -17.01976467	     -6.78590833	    -18.97553066	      0.95985733	     -3.56148356
      1.79033333	      7.13298776	      3.57379926	     -2.17533171	      1.43826097	      1.03114440	      0.28369090	     11.10669891	     -6.19860337	     -0.73104846	    -61.97203806	      1.61743709	     -2.29971207	      4.87475147	     -7.55499322	      8.94118134	      9.57096176	     -4.84082069	      2.24696761	    -17.07435594	     -6.78107397	    -19.04103400	      1.24092781	     -3.77847242
      1.79450000	      7.17309920	      3.41883812	     -1.95090051	      1.44259136	      1.03144804	      0.28319190	     11.47534370	     -5.99391628	     -0.88113566	    -61.19784913	      2.19442706	     -2.45112505	      4.62314969	     -8.06974867	      8.74451569	      9.82785778	     -4.46059653	      2.16336481	    -17.16557402	     -6.76789444	    -19.12928138	      1.48942739	     -4.03207006
      1.79866667	      7.16807213	      3.26006754	     -1.73665546	      1.44694702	      1.03163947	      0.28269797	     11.88776500	     -5.78961276	     -1.02757405	    -60.38718606	      2.66806695	     -2.59334578	      4.44745395	     -8.52509875	      8.54221033	     10.06927350	     -4.11473481	      2.19931696	    -17.17894851	     -6.75348583	    -19.14593886	      1.75711867	     -4.22326274
      1.80283333	      7.19710258	      3.10660644	     -1.54113168	      1.45130042	      1.03183933	      0.28225876	     12.24599360	     -5.58680940	     -1.15452645	    -59.53355362	      3.12771744	     -2.80841696	      4.27059530	     -9.01785829	      8.34222120	     10.28111789	     -3.75031309	      2.18431695	    -17.20290006	     -6.74008643	    -19.21229640	      2.00185273	     -4.40735161
      1.80700000	      7.22059401	      2.99254014	     -1.32162457	      1.45563162	      1.03196673	      0.28180014	     12.60628109	     -5.43757285	     -1.30736958	    -58.66564448	      3.59594334	     -3.06979287	      3.95408654	     -9.50102259	      8.17898543	     10.53969639	     -3.38406005	      2.08223456	    -17.33889587	     -6.71106749	    -19.26548925	      2.21261604	     -4.68887733
      1.81116667	      7.24989555	      2.84874993	     -1.12138758	      1.45998006	      1.03208490	      0.28138451	     12.93948784	     -5.24759634	     -1.43769504	    -57.73775528	      3.97139141	     -3.36900483	      3.64054040	     -9.98061074	      7.98254277	     10.75773425	     -3.04734740	      2.07237061	    -17.38161978	     -6.67574985	    -19.33141842	      2.44489579	     -4.86590603
